<svg width="71" height="27" viewBox="0 0 71 27" fill="none" xmlns="http://www.w3.org/2000/svg">
<path d="M2.52159 16.6158L5.37969 7.74902L5.57764 6.02669L6.21418 5.16019L12.3626 7.14208C13.5816 7.53498 14.4813 8.08696 15.0618 8.79802C15.6423 9.50907 15.7761 10.35 15.4632 11.3208C15.2928 11.8494 15.0549 12.2549 14.7495 12.5375C14.4583 12.8128 14.1288 13.0222 13.7611 13.1656C14.1 13.3701 14.3931 13.6432 14.6402 13.9848C14.8908 14.3156 15.0559 14.7082 15.1357 15.1626C15.219 15.6062 15.1702 16.1085 14.9894 16.6694C14.6243 17.802 14.0048 18.5787 13.1309 18.9996C12.2712 19.4131 11.1079 19.3835 9.64088 18.9106L2.52159 16.6158ZM8.33955 10.7572L10.2488 11.3726C10.6156 11.4908 10.8972 11.5221 11.0938 11.4663C11.2938 11.3998 11.4321 11.2479 11.5086 11.0106C11.5886 10.7625 11.5256 10.5517 11.3195 10.3781C11.117 10.1938 10.8539 10.0494 10.5303 9.94511L8.78287 9.38184L8.33955 10.7572ZM7.07218 14.6889L9.82282 15.5756C10.2543 15.7147 10.5772 15.7473 10.7915 15.6735C11.0093 15.5889 11.1547 15.4333 11.2277 15.2068C11.3946 14.689 11.1437 14.3224 10.4749 14.1068L7.56244 13.168L7.07218 14.6889Z" fill="black"/>
<path d="M2.52159 16.6158L1.56982 16.309L1.26302 17.2607L2.2148 17.5675L2.52159 16.6158ZM5.37969 7.74902L6.33147 8.05581L6.36185 7.96157L6.37315 7.8632L5.37969 7.74902ZM5.57764 6.02669L4.77172 5.43466L4.6145 5.64868L4.58418 5.91251L5.57764 6.02669ZM6.21418 5.16019L6.52097 4.20841L5.83497 3.98729L5.40826 4.56816L6.21418 5.16019ZM15.0618 8.79802L15.8364 8.1656L15.8364 8.1656L15.0618 8.79802ZM14.7495 12.5375L14.0703 11.8035L14.0624 11.8109L14.7495 12.5375ZM13.7611 13.1656L13.3977 12.234L11.505 12.9722L13.2445 14.0218L13.7611 13.1656ZM14.6402 13.9848L13.8299 14.5709L13.8364 14.5798L13.843 14.5886L14.6402 13.9848ZM15.1357 15.1626L14.1507 15.3356L14.1529 15.3471L15.1357 15.1626ZM13.1309 18.9996L13.5644 19.9007L13.5647 19.9006L13.1309 18.9996ZM8.33955 10.7572L7.38778 10.4504L7.08098 11.4021L8.03276 11.7089L8.33955 10.7572ZM11.0938 11.4663L11.3665 12.4284L11.388 12.4223L11.4092 12.4153L11.0938 11.4663ZM11.3195 10.3781L10.6464 11.1176L10.6606 11.1305L10.6752 11.1429L11.3195 10.3781ZM8.78287 9.38184L9.08967 8.43006L8.13789 8.12327L7.83109 9.07504L8.78287 9.38184ZM7.07218 14.6889L6.12041 14.3821L5.81361 15.3339L6.76539 15.6407L7.07218 14.6889ZM10.7915 15.6735L11.1171 16.619L11.1355 16.6127L11.1536 16.6056L10.7915 15.6735ZM7.56244 13.168L7.86924 12.2162L6.91746 11.9094L6.61067 12.8612L7.56244 13.168ZM3.47337 16.9226L6.33147 8.05581L4.42792 7.44222L1.56982 16.309L3.47337 16.9226ZM6.37315 7.8632L6.5711 6.14087L4.58418 5.91251L4.38623 7.63484L6.37315 7.8632ZM6.38356 6.61872L7.02009 5.75222L5.40826 4.56816L4.77172 5.43466L6.38356 6.61872ZM5.90738 6.11196L12.0559 8.09386L12.6694 6.19031L6.52097 4.20841L5.90738 6.11196ZM12.0559 8.09386C13.161 8.45009 13.8678 8.91678 14.2872 9.43043L15.8364 8.1656C15.0947 7.25714 14.0021 6.61988 12.6694 6.19031L12.0559 8.09386ZM14.2872 9.43043C14.6264 9.84594 14.7339 10.3236 14.5114 11.014L16.4149 11.6276C16.8182 10.3764 16.6582 9.17221 15.8364 8.1656L14.2872 9.43043ZM14.5114 11.014C14.3767 11.4319 14.2145 11.6702 14.0703 11.8035L15.4286 13.2715C15.8953 12.8397 16.2089 12.2669 16.4149 11.6276L14.5114 11.014ZM14.0624 11.8109C13.8635 11.999 13.6435 12.1381 13.3977 12.234L14.1245 14.0972C14.6141 13.9063 15.0531 13.6266 15.4365 13.2642L14.0624 11.8109ZM13.2445 14.0218C13.461 14.1525 13.6564 14.3309 13.8299 14.5709L15.4504 13.3987C15.1298 12.9554 14.7391 12.5877 14.2777 12.3094L13.2445 14.0218ZM13.843 14.5886C13.9874 14.7792 14.0954 15.02 14.1508 15.3356L16.1207 14.9897C16.0165 14.3965 15.7941 13.8521 15.4373 13.381L13.843 14.5886ZM14.1529 15.3471C14.1974 15.5844 14.1824 15.9133 14.0376 16.3626L15.9412 16.9762C16.158 16.3037 16.2405 15.628 16.1186 14.9782L14.1529 15.3471ZM14.0376 16.3626C13.7361 17.2979 13.2701 17.8226 12.697 18.0986L13.5647 19.9006C14.7395 19.3348 15.5125 18.3061 15.9412 16.9762L14.0376 16.3626ZM12.6974 18.0984C12.1758 18.3493 11.3135 18.3991 9.94767 17.9588L9.33408 19.8624C10.9022 20.3678 12.3666 20.4769 13.5644 19.9007L12.6974 18.0984ZM9.94767 17.9588L2.82839 15.664L2.2148 17.5675L9.33408 19.8624L9.94767 17.9588ZM8.03276 11.7089L9.94202 12.3244L10.5556 10.4208L8.64635 9.80538L8.03276 11.7089ZM9.94202 12.3244C10.3552 12.4575 10.8749 12.5678 11.3665 12.4284L10.8211 10.5042C10.8853 10.486 10.904 10.4973 10.8454 10.4908C10.7903 10.4847 10.6962 10.4661 10.5556 10.4208L9.94202 12.3244ZM11.4092 12.4153C11.9692 12.2292 12.3064 11.7951 12.4604 11.3174L10.5568 10.7038C10.5532 10.7151 10.5628 10.6791 10.608 10.6294C10.6574 10.5752 10.7202 10.5367 10.7784 10.5174L11.4092 12.4153ZM12.4604 11.3174C12.5507 11.0372 12.5789 10.7129 12.4794 10.38C12.3808 10.0499 12.1822 9.79732 11.9639 9.61337L10.6752 11.1429C10.6629 11.1325 10.5989 11.0721 10.5632 10.9528C10.5267 10.8308 10.5465 10.736 10.5568 10.7038L12.4604 11.3174ZM11.9927 9.63861C11.6623 9.33789 11.2647 9.13115 10.8371 8.99334L10.2235 10.8969C10.4432 10.9677 10.5717 11.0496 10.6464 11.1176L11.9927 9.63861ZM10.8371 8.99334L9.08967 8.43006L8.47608 10.3336L10.2235 10.8969L10.8371 8.99334ZM7.83109 9.07504L7.38778 10.4504L9.29133 11.0639L9.73465 9.68863L7.83109 9.07504ZM6.76539 15.6407L9.51602 16.5273L10.1296 14.6238L7.37898 13.7372L6.76539 15.6407ZM9.51602 16.5273C9.98116 16.6773 10.5759 16.8054 11.1171 16.619L10.4659 14.728C10.5414 14.702 10.5643 14.717 10.4891 14.7094C10.4192 14.7024 10.3025 14.6795 10.1296 14.6238L9.51602 16.5273ZM11.1536 16.6056C11.6581 16.4097 12.0161 16.0205 12.1795 15.5136L10.2759 14.9C10.2792 14.8898 10.2942 14.8523 10.3333 14.8105C10.3728 14.7682 10.4121 14.748 10.4294 14.7413L11.1536 16.6056ZM12.1795 15.5136C12.3342 15.0336 12.3295 14.4748 11.9899 13.9787C11.685 13.5332 11.2124 13.2939 10.7817 13.155L10.1681 15.0586C10.277 15.0937 10.3366 15.1249 10.3632 15.1417C10.3885 15.1577 10.3686 15.1509 10.3394 15.1083C10.3247 15.0868 10.3103 15.0599 10.299 15.0286C10.2876 14.9973 10.2815 14.9674 10.279 14.9414C10.2741 14.8898 10.2851 14.8717 10.2759 14.9L12.1795 15.5136ZM10.7817 13.155L7.86924 12.2162L7.25565 14.1198L10.1681 15.0586L10.7817 13.155ZM6.61067 12.8612L6.12041 14.3821L8.02396 14.9957L8.51422 13.4748L6.61067 12.8612Z" fill="white"/>
<path d="M20.1678 21.6652L21.2292 18.8736L21.416 16.7227L22.7134 16.3234L25.6448 10.0766L30.7426 10.5193L32.9799 18.3582L34.0751 20.8764L33.9031 22.8579L30.2279 22.5388L29.6002 19.9418L25.0105 19.5432L24.0631 22.0035L20.1678 21.6652ZM26.3856 16.6764L28.9261 16.897L28.101 13.4297L27.7453 13.3988L26.3856 16.6764Z" fill="white"/>
<path d="M20.1678 21.6652L19.2331 21.3098L18.7626 22.547L20.0813 22.6615L20.1678 21.6652ZM21.2292 18.8736L22.164 19.229L22.2134 19.0988L22.2255 18.9601L21.2292 18.8736ZM21.416 16.7227L21.1219 15.7669L20.478 15.9651L20.4198 16.6362L21.416 16.7227ZM22.7134 16.3234L23.0075 17.2792L23.4306 17.149L23.6187 16.7482L22.7134 16.3234ZM25.6448 10.0766L25.7313 9.08035L25.036 9.01997L24.7395 9.65179L25.6448 10.0766ZM30.7426 10.5193L31.7042 10.2448L31.5152 9.5826L30.8291 9.52302L30.7426 10.5193ZM32.9799 18.3582L32.0183 18.6326L32.0365 18.6963L32.0629 18.757L32.9799 18.3582ZM34.0751 20.8764L35.0714 20.9629L35.0933 20.7102L34.9922 20.4775L34.0751 20.8764ZM33.9031 22.8579L33.8166 23.8542L34.8128 23.9407L34.8993 22.9444L33.9031 22.8579ZM30.2279 22.5388L29.2559 22.7737L29.4249 23.4728L30.1414 23.5351L30.2279 22.5388ZM29.6002 19.9418L30.5722 19.7068L30.4033 19.0077L29.6867 18.9455L29.6002 19.9418ZM25.0105 19.5432L25.097 18.547L24.3476 18.4819L24.0773 19.1839L25.0105 19.5432ZM24.0631 22.0035L23.9766 22.9997L24.726 23.0648L24.9963 22.3628L24.0631 22.0035ZM26.3856 16.6764L25.462 16.2933L24.9388 17.5546L26.2991 17.6727L26.3856 16.6764ZM28.9261 16.897L28.8396 17.8933L30.2196 18.0131L29.8989 16.6655L28.9261 16.897ZM28.101 13.4297L29.0738 13.1981L28.9067 12.4959L28.1875 12.4334L28.101 13.4297ZM27.7453 13.3988L27.8318 12.4025L27.1022 12.3392L26.8216 13.0156L27.7453 13.3988ZM21.1025 22.0206L22.164 19.229L20.2945 18.5182L19.2331 21.3098L21.1025 22.0206ZM22.2255 18.9601L22.4123 16.8092L20.4198 16.6362L20.233 18.7871L22.2255 18.9601ZM21.7101 17.6785L23.0075 17.2792L22.4193 15.3677L21.1219 15.7669L21.7101 17.6785ZM23.6187 16.7482L26.5501 10.5014L24.7395 9.65179L21.8081 15.8986L23.6187 16.7482ZM25.5583 11.0729L30.6561 11.5155L30.8291 9.52302L25.7313 9.08035L25.5583 11.0729ZM29.781 10.7937L32.0183 18.6326L33.9415 18.0838L31.7042 10.2448L29.781 10.7937ZM32.0629 18.757L33.1581 21.2752L34.9922 20.4775L33.8969 17.9594L32.0629 18.757ZM33.0789 20.7899L32.9068 22.7714L34.8993 22.9444L35.0714 20.9629L33.0789 20.7899ZM33.9896 21.8617L30.3144 21.5426L30.1414 23.5351L33.8166 23.8542L33.9896 21.8617ZM31.1999 22.3039L30.5722 19.7068L28.6282 20.1767L29.2559 22.7737L31.1999 22.3039ZM29.6867 18.9455L25.097 18.547L24.924 20.5395L29.5137 20.938L29.6867 18.9455ZM24.0773 19.1839L23.1299 21.6441L24.9963 22.3628L25.9437 19.9026L24.0773 19.1839ZM24.1496 21.0072L20.2543 20.669L20.0813 22.6615L23.9766 22.9997L24.1496 21.0072ZM26.2991 17.6727L28.8396 17.8933L29.0126 15.9008L26.4722 15.6802L26.2991 17.6727ZM29.8989 16.6655L29.0738 13.1981L27.1281 13.6612L27.9533 17.1285L29.8989 16.6655ZM28.1875 12.4334L27.8318 12.4025L27.6588 14.395L28.0144 14.4259L28.1875 12.4334ZM26.8216 13.0156L25.462 16.2933L27.3093 17.0596L28.669 13.7819L26.8216 13.0156Z" fill="black"/>
<path d="M41.8191 22.5041L41.3526 21.5354L41.4745 19.8061L40.2942 10.5651L44.0041 10.0913L44.8247 16.5161L44.9511 18.8479L45.2884 18.8048L48.2853 18.2506L49.4611 17.929L51.2595 20.2015L50.571 21.3863L41.8191 22.5041Z" fill="black"/>
<path d="M41.8191 22.5041L40.9182 22.938L41.2309 23.5874L41.9458 23.4961L41.8191 22.5041ZM41.3526 21.5354L40.3551 21.4651L40.3364 21.73L40.4517 21.9693L41.3526 21.5354ZM41.4745 19.8061L42.472 19.8763L42.479 19.7776L42.4664 19.6794L41.4745 19.8061ZM40.2942 10.5651L40.1675 9.57318L39.1756 9.69988L39.3022 10.6918L40.2942 10.5651ZM44.0041 10.0913L44.996 9.96458L44.8693 8.97264L43.8774 9.09933L44.0041 10.0913ZM44.8247 16.5161L45.8232 16.4619L45.8212 16.4255L45.8166 16.3894L44.8247 16.5161ZM44.9511 18.8479L43.9526 18.902L44.0108 19.9761L45.0778 19.8398L44.9511 18.8479ZM45.2884 18.8048L45.4151 19.7967L45.4428 19.7932L45.4702 19.7881L45.2884 18.8048ZM48.2853 18.2506L48.4672 19.2339L48.5085 19.2263L48.5491 19.2152L48.2853 18.2506ZM49.4611 17.929L50.2452 17.3085L49.8349 16.7901L49.1973 16.9645L49.4611 17.929ZM51.2595 20.2015L52.1241 20.7039L52.4663 20.115L52.0436 19.5809L51.2595 20.2015ZM50.571 21.3863L50.6977 22.3782L51.1876 22.3157L51.4357 21.8887L50.571 21.3863ZM42.7201 22.0703L42.2536 21.1016L40.4517 21.9693L40.9182 22.938L42.7201 22.0703ZM42.3502 21.6057L42.472 19.8763L40.477 19.7358L40.3551 21.4651L42.3502 21.6057ZM42.4664 19.6794L41.2861 10.4384L39.3022 10.6918L40.4826 19.9327L42.4664 19.6794ZM40.4209 11.5571L44.1307 11.0832L43.8774 9.09933L40.1675 9.57318L40.4209 11.5571ZM43.0121 10.218L43.8327 16.6428L45.8166 16.3894L44.996 9.96458L43.0121 10.218ZM43.8261 16.5702L43.9526 18.902L45.9497 18.7937L45.8232 16.4619L43.8261 16.5702ZM45.0778 19.8398L45.4151 19.7967L45.1617 17.8128L44.8244 17.8559L45.0778 19.8398ZM45.4702 19.7881L48.4672 19.2339L48.1035 17.2673L45.1066 17.8214L45.4702 19.7881ZM48.5491 19.2152L49.7249 18.8936L49.1973 16.9645L48.0215 17.286L48.5491 19.2152ZM48.6769 18.5496L50.4753 20.8221L52.0436 19.5809L50.2452 17.3085L48.6769 18.5496ZM50.3948 19.6991L49.7064 20.8839L51.4357 21.8887L52.1241 20.7039L50.3948 19.6991ZM50.4443 20.3943L41.6924 21.5122L41.9458 23.4961L50.6977 22.3782L50.4443 20.3943Z" fill="white"/>
<path d="M59.0058 19.4999L58.3593 18.6408L58.1415 16.9209L55.1812 8.08774L58.7273 6.8993L60.7855 13.0406L61.3644 15.3029L61.6868 15.1949L64.518 14.0667L65.6084 13.522L67.8156 15.3999L67.3715 16.6963L59.0058 19.4999Z" fill="white"/>
<path d="M59.0058 19.4999L58.2068 20.1012L58.6402 20.6771L59.3236 20.4481L59.0058 19.4999ZM58.3593 18.6408L57.3672 18.7665L57.4006 19.0299L57.5603 19.2421L58.3593 18.6408ZM58.1415 16.9209L59.1336 16.7952L59.1211 16.697L59.0896 16.6031L58.1415 16.9209ZM55.1812 8.08774L54.8634 7.13957L53.9152 7.45734L54.233 8.40551L55.1812 8.08774ZM58.7273 6.8993L59.6755 6.58153L59.3577 5.63336L58.4096 5.95113L58.7273 6.8993ZM60.7855 13.0406L61.7543 12.7927L61.7452 12.7574L61.7337 12.7228L60.7855 13.0406ZM61.3644 15.3029L60.3956 15.5508L60.6622 16.5929L61.6822 16.2511L61.3644 15.3029ZM61.6868 15.1949L62.0045 16.143L62.031 16.1342L62.0569 16.1238L61.6868 15.1949ZM64.518 14.0667L64.8882 14.9957L64.9273 14.9801L64.9649 14.9613L64.518 14.0667ZM65.6084 13.522L66.2565 12.7604L65.753 12.3319L65.1615 12.6274L65.6084 13.522ZM67.8156 15.3999L68.7616 15.724L68.9824 15.0797L68.4636 14.6383L67.8156 15.3999ZM67.3715 16.6963L67.6893 17.6444L68.1575 17.4875L68.3175 17.0204L67.3715 16.6963ZM59.8048 18.8986L59.1583 18.0395L57.5603 19.2421L58.2068 20.1012L59.8048 18.8986ZM59.3514 18.5152L59.1336 16.7952L57.1494 17.0465L57.3672 18.7665L59.3514 18.5152ZM59.0896 16.6031L56.1293 7.76998L54.233 8.40551L57.1933 17.2387L59.0896 16.6031ZM55.4989 9.03591L59.0451 7.84747L58.4096 5.95113L54.8634 7.13957L55.4989 9.03591ZM57.7792 7.21706L59.8373 13.3584L61.7337 12.7228L59.6755 6.58153L57.7792 7.21706ZM59.8167 13.2885L60.3956 15.5508L62.3332 15.055L61.7543 12.7927L59.8167 13.2885ZM61.6822 16.2511L62.0045 16.143L61.369 14.2467L61.0466 14.3547L61.6822 16.2511ZM62.0569 16.1238L64.8882 14.9957L64.1479 13.1377L61.3166 14.2659L62.0569 16.1238ZM64.9649 14.9613L66.0553 14.4166L65.1615 12.6274L64.0711 13.1721L64.9649 14.9613ZM64.9604 14.2836L67.1676 16.1616L68.4636 14.6383L66.2565 12.7604L64.9604 14.2836ZM66.8696 15.0759L66.4255 16.3722L68.3175 17.0204L68.7616 15.724L66.8696 15.0759ZM67.0537 15.7481L58.688 18.5517L59.3236 20.4481L67.6893 17.6444L67.0537 15.7481Z" fill="black"/>
</svg>
