<svg width="82" height="31" viewBox="0 0 82 31" fill="none" xmlns="http://www.w3.org/2000/svg">
<path d="M8.25403 25.916L4.4167 17.4456L3.40548 16.0374L3.30975 14.961L6.91777 13.3265L12.4082 17.3712L12.7179 17.2309L12.7711 10.6747L16.472 8.99807L17.0478 9.85702L17.5664 11.4137L21.4318 19.946L18.0096 21.4964L17.4598 20.1591L15.5025 15.8388L15.3322 15.9159L15.4804 17.8084L15.4808 20.7757L13.0032 21.8981L9.32399 18.6378L9.16914 18.708L9.73737 19.9623L11.8775 24.2744L8.25403 25.916Z" fill="black"/>
<path d="M8.25403 25.916L7.34314 26.3286L7.7558 27.2395L8.66669 26.8268L8.25403 25.916ZM4.4167 17.4456L5.32759 17.033L5.28672 16.9428L5.22897 16.8623L4.4167 17.4456ZM3.40548 16.0374L2.40941 16.126L2.43364 16.3985L2.59321 16.6207L3.40548 16.0374ZM3.30975 14.961L2.89709 14.0501L2.25083 14.3429L2.31368 15.0496L3.30975 14.961ZM6.91777 13.3265L7.51089 12.5214L7.039 12.1737L6.5051 12.4156L6.91777 13.3265ZM12.4082 17.3712L11.815 18.1764L12.2869 18.524L12.8208 18.2821L12.4082 17.3712ZM12.7179 17.2309L13.1305 18.1418L13.7126 17.8781L13.7178 17.2391L12.7179 17.2309ZM12.7711 10.6747L12.3585 9.76382L11.7763 10.0275L11.7711 10.6666L12.7711 10.6747ZM16.472 8.99807L17.3027 8.44128L16.831 7.73761L16.0594 8.08718L16.472 8.99807ZM17.0478 9.85702L17.9965 9.54095L17.9538 9.4126L17.8785 9.30023L17.0478 9.85702ZM17.5664 11.4137L16.6177 11.7298L16.6341 11.7791L16.6555 11.8264L17.5664 11.4137ZM21.4318 19.946L21.8445 20.8569L22.7553 20.4442L22.3427 19.5333L21.4318 19.946ZM18.0096 21.4964L17.0847 21.8766L17.4787 22.8347L18.4223 22.4072L18.0096 21.4964ZM17.4598 20.1591L18.3846 19.7788L18.3779 19.7625L18.3707 19.7464L17.4598 20.1591ZM15.5025 15.8388L16.4134 15.4261L16.0007 14.5152L15.0899 14.9279L15.5025 15.8388ZM15.3322 15.9159L14.9195 15.005L14.2805 15.2946L14.3352 15.994L15.3322 15.9159ZM15.4804 17.8084L16.4804 17.8083L16.4803 17.7693L16.4773 17.7304L15.4804 17.8084ZM15.4808 20.7757L15.8935 21.6865L16.481 21.4204L16.4808 20.7755L15.4808 20.7757ZM13.0032 21.8981L12.34 22.6465L12.8253 23.0765L13.4159 22.809L13.0032 21.8981ZM9.32399 18.6378L9.98719 17.8894L9.50192 17.4594L8.91133 17.7269L9.32399 18.6378ZM9.16914 18.708L8.75648 17.7971L7.84559 18.2098L8.25825 19.1206L9.16914 18.708ZM9.73737 19.9623L8.82649 20.3749L8.83377 20.391L8.84163 20.4068L9.73737 19.9623ZM11.8775 24.2744L12.2902 25.1853L13.2338 24.7578L12.7733 23.8298L11.8775 24.2744ZM9.16491 25.5033L5.32759 17.033L3.50582 17.8583L7.34314 26.3286L9.16491 25.5033ZM5.22897 16.8623L4.21774 15.4541L2.59321 16.6207L3.60443 18.0289L5.22897 16.8623ZM4.40155 15.9489L4.30582 14.8724L2.31368 15.0496L2.40941 16.126L4.40155 15.9489ZM3.72241 15.8719L7.33043 14.2373L6.5051 12.4156L2.89709 14.0501L3.72241 15.8719ZM6.32464 14.1316L11.815 18.1764L13.0013 16.5661L7.51089 12.5214L6.32464 14.1316ZM12.8208 18.2821L13.1305 18.1418L12.3052 16.3201L11.9955 16.4604L12.8208 18.2821ZM13.7178 17.2391L13.7711 10.6828L11.7711 10.6666L11.7179 17.2228L13.7178 17.2391ZM13.1838 11.5856L16.8847 9.90895L16.0594 8.08718L12.3585 9.76382L13.1838 11.5856ZM15.6414 9.55486L16.2172 10.4138L17.8785 9.30023L17.3027 8.44128L15.6414 9.55486ZM16.0991 10.1731L16.6177 11.7298L18.5152 11.0977L17.9965 9.54095L16.0991 10.1731ZM16.6555 11.8264L20.5209 20.3587L22.3427 19.5333L18.4773 11.0011L16.6555 11.8264ZM21.0191 19.0351L17.5969 20.5855L18.4223 22.4072L21.8445 20.8569L21.0191 19.0351ZM18.9345 21.1161L18.3846 19.7788L16.5349 20.5394L17.0847 21.8766L18.9345 21.1161ZM18.3707 19.7464L16.4134 15.4261L14.5916 16.2514L16.5489 20.5717L18.3707 19.7464ZM15.0899 14.9279L14.9195 15.005L15.7448 16.8268L15.9152 16.7496L15.0899 14.9279ZM14.3352 15.994L14.4834 17.8865L16.4773 17.7304L16.3291 15.8379L14.3352 15.994ZM14.4804 17.8086L14.4808 20.7758L16.4808 20.7755L16.4804 17.8083L14.4804 17.8086ZM15.0682 19.8648L12.5906 20.9872L13.4159 22.809L15.8935 21.6865L15.0682 19.8648ZM13.6664 21.1497L9.98719 17.8894L8.66078 19.3863L12.34 22.6465L13.6664 21.1497ZM8.91133 17.7269L8.75648 17.7971L9.5818 19.6189L9.73665 19.5487L8.91133 17.7269ZM8.25825 19.1206L8.82649 20.3749L10.6483 19.5496L10.08 18.2953L8.25825 19.1206ZM8.84163 20.4068L10.9818 24.719L12.7733 23.8298L10.6331 19.5177L8.84163 20.4068ZM11.4649 23.3635L7.84137 25.0051L8.66669 26.8268L12.2902 25.1853L11.4649 23.3635Z" fill="#F3F3F3"/>
<path d="M34.3986 17.7826C33.6765 17.851 32.9464 17.8349 32.2082 17.7341C31.4803 17.621 30.7959 17.3671 30.1552 16.9725C29.5257 16.5768 28.9924 15.9955 28.5554 15.2287C28.1184 14.4618 27.8406 13.4522 27.7218 12.1998C27.6031 10.9474 27.6863 9.9036 27.9714 9.0683C28.2565 8.23299 28.671 7.56187 29.2149 7.05494C29.7701 6.54693 30.3951 6.17461 31.0898 5.93798C31.7948 5.68899 32.5084 5.53027 33.2305 5.46181C33.9525 5.39335 34.6776 5.41568 35.4055 5.52881C36.1447 5.64088 36.829 5.89475 37.4585 6.29043C38.0993 6.68505 38.6382 7.26578 39.0752 8.03262C39.5122 8.79946 39.7895 9.80344 39.9072 11.0445C40.0249 12.2856 39.9411 13.3238 39.656 14.1591C39.371 14.9945 38.9508 15.6661 38.3956 16.1741C37.8517 16.681 37.2272 17.059 36.5223 17.308C35.8286 17.5559 35.1207 17.7141 34.3986 17.7826ZM34.0777 14.3977C34.811 14.3282 35.343 14.0558 35.6736 13.5804C36.0032 13.0938 36.1225 12.371 36.0316 11.412C35.9417 10.4642 35.6892 9.78235 35.2741 9.36635C34.859 8.95034 34.2847 8.7771 33.5514 8.84663C32.0846 8.98569 31.4389 9.98041 31.6144 11.8308C31.7042 12.7785 31.9511 13.4609 32.3549 13.878C32.77 14.294 33.3443 14.4673 34.0777 14.3977Z" fill="white"/>
<path d="M32.2082 17.7341L32.0547 18.7222L32.0638 18.7236L32.0729 18.7249L32.2082 17.7341ZM30.1552 16.9725L29.623 17.8191L29.6308 17.8239L30.1552 16.9725ZM28.5554 15.2287L27.6866 15.7238L27.6866 15.7238L28.5554 15.2287ZM27.9714 9.0683L28.9178 9.39131L28.9178 9.39131L27.9714 9.0683ZM29.2149 7.05494L28.5398 6.31714L28.5331 6.3234L29.2149 7.05494ZM31.0898 5.93798L31.4123 6.88464L31.4229 6.8809L31.0898 5.93798ZM35.4055 5.52881L35.2519 6.51696L35.2556 6.51752L35.4055 5.52881ZM37.4585 6.29043L36.9263 7.1371L36.9342 7.14192L37.4585 6.29043ZM39.0752 8.03262L39.944 7.53751L39.944 7.53751L39.0752 8.03262ZM39.656 14.1591L40.6024 14.4822L40.6024 14.4822L39.656 14.1591ZM38.3956 16.1741L37.7205 15.4363L37.7138 15.4426L38.3956 16.1741ZM36.5223 17.308L36.1892 16.3651L36.1857 16.3663L36.5223 17.308ZM35.6736 13.5804L36.4947 14.1515L36.5016 14.1412L35.6736 13.5804ZM35.2741 9.36635L34.5662 10.0727L34.5662 10.0727L35.2741 9.36635ZM32.3549 13.878L31.6365 14.5736L31.6417 14.579L31.6471 14.5844L32.3549 13.878ZM34.3042 16.787C33.6606 16.848 33.0076 16.8339 32.3435 16.7433L32.0729 18.7249C32.8851 18.8358 33.6923 18.854 34.493 18.7781L34.3042 16.787ZM32.3618 16.7459C31.7682 16.6537 31.2095 16.4474 30.6796 16.121L29.6308 17.8239C30.3823 18.2868 31.1924 18.5882 32.0547 18.7222L32.3618 16.7459ZM30.6873 16.1258C30.2212 15.8328 29.7949 15.384 29.4243 14.7336L27.6866 15.7238C28.1899 16.607 28.8301 17.3207 29.623 17.8191L30.6873 16.1258ZM29.4243 14.7336C29.0806 14.1305 28.828 13.2724 28.7174 12.1054L26.7263 12.2942C26.8531 13.632 27.1563 14.7931 27.6866 15.7238L29.4243 14.7336ZM28.7174 12.1054C28.6067 10.9385 28.6936 10.0482 28.9178 9.39131L27.025 8.74528C26.679 9.75902 26.5995 10.9564 26.7263 12.2942L28.7174 12.1054ZM28.9178 9.39131C29.1596 8.68278 29.4939 8.16185 29.8967 7.78647L28.5331 6.3234C27.848 6.96189 27.3533 7.7832 27.025 8.74528L28.9178 9.39131ZM29.8899 7.7927C30.3459 7.37549 30.8515 7.07555 31.4122 6.88458L30.7674 4.99138C29.9386 5.27367 29.1943 5.71837 28.5398 6.31717L29.8899 7.7927ZM31.4229 6.8809C32.0531 6.6583 32.6866 6.51785 33.3248 6.45734L33.1361 4.46627C32.3301 4.54269 31.5365 4.71969 30.7568 4.99506L31.4229 6.8809ZM33.3248 6.45734C33.963 6.39684 34.6047 6.41637 35.2519 6.51695L35.5591 4.54068C34.7504 4.415 33.9421 4.38985 33.1361 4.46627L33.3248 6.45734ZM35.2556 6.51752C35.8598 6.6091 36.4139 6.81492 36.9264 7.13707L37.9907 5.4438C37.2442 4.97458 36.4296 4.67265 35.5554 4.54011L35.2556 6.51752ZM36.9342 7.14192C37.4091 7.43443 37.838 7.88141 38.2064 8.52773L39.944 7.53751C39.4383 6.65014 38.7895 5.93567 37.9829 5.43895L36.9342 7.14192ZM38.2064 8.52773C38.5505 9.13169 38.8022 9.98475 38.9117 11.1389L40.9027 10.9502C40.7768 9.62213 40.4738 8.46724 39.944 7.53751L38.2064 8.52773ZM38.9117 11.1389C39.0211 12.2931 38.9342 13.1783 38.7097 13.8361L40.6024 14.4822C40.9481 13.4694 41.0286 12.2782 40.9027 10.9502L38.9117 11.1389ZM38.7097 13.8361C38.4694 14.5402 38.1321 15.0598 37.7206 15.4363L39.0707 16.9119C39.7695 16.2724 40.2725 15.4487 40.6024 14.4822L38.7097 13.8361ZM37.7138 15.4426C37.271 15.8553 36.7654 16.1616 36.1892 16.3651L36.8553 18.2509C37.6891 17.9564 38.4324 17.5068 39.0774 16.9056L37.7138 15.4426ZM36.1857 16.3663C35.569 16.5867 34.9424 16.7265 34.3042 16.787L34.493 18.7781C35.299 18.7017 36.0882 18.5251 36.8588 18.2497L36.1857 16.3663ZM34.1721 15.3933C35.1122 15.3041 35.9522 14.9312 36.4946 14.1515L34.8527 13.0094C34.7338 13.1803 34.5099 13.3523 33.9833 13.4022L34.1721 15.3933ZM36.5016 14.1412C37.0219 13.3729 37.127 12.3708 37.0271 11.3176L35.036 11.5064C35.118 12.3712 34.9844 12.8148 34.8457 13.0197L36.5016 14.1412ZM37.0271 11.3176C36.928 10.2722 36.6359 9.31531 35.982 8.66L34.5662 10.0727C34.7426 10.2494 34.9554 10.6563 35.036 11.5064L37.0271 11.3176ZM35.982 8.66C35.304 7.98054 34.4055 7.76117 33.457 7.85109L33.6458 9.84217C34.164 9.79303 34.414 9.92013 34.5662 10.0727L35.982 8.66ZM33.457 7.85109C32.5007 7.94176 31.6571 8.33771 31.1283 9.15251C30.6302 9.91989 30.5212 10.8952 30.6188 11.9252L32.6099 11.7364C32.5321 10.916 32.6583 10.4688 32.8058 10.2414C32.9226 10.0615 33.1353 9.89056 33.6458 9.84217L33.457 7.85109ZM30.6188 11.9252C30.7175 12.9654 31.0015 13.9178 31.6365 14.5736L33.0733 13.1824C32.9006 13.0041 32.691 12.5917 32.6099 11.7364L30.6188 11.9252ZM31.6471 14.5844C32.3251 15.2638 33.2236 15.4832 34.1721 15.3933L33.9833 13.4022C33.465 13.4513 33.215 13.3242 33.0628 13.1717L31.6471 14.5844Z" fill="black"/>
<path d="M49.8032 17.9707L48.6285 8.21939L48.4577 6.46914L48.6572 5.46885L52.525 6.24054L52.8425 15.0754L53.1759 15.142L56.8429 7.10204L60.6606 7.86375L60.4611 8.86403L59.6316 10.4147L54.8213 18.9719L49.8032 17.9707Z" fill="black"/>
<path d="M49.8032 17.9707L48.8104 18.0903L48.8971 18.8096L49.6076 18.9514L49.8032 17.9707ZM48.6285 8.21939L47.6332 8.31654L47.6343 8.32778L47.6357 8.339L48.6285 8.21939ZM48.4577 6.46914L47.477 6.27347L47.448 6.4188L47.4624 6.56629L48.4577 6.46914ZM48.6572 5.46885L48.8529 4.48818L47.8722 4.29252L47.6766 5.27319L48.6572 5.46885ZM52.525 6.24054L53.5243 6.20463L53.496 5.41455L52.7207 5.25987L52.525 6.24054ZM52.8425 15.0754L51.8431 15.1113L51.8715 15.9014L52.6468 16.0561L52.8425 15.0754ZM53.1759 15.142L52.9803 16.1226L53.757 16.2776L54.0857 15.5569L53.1759 15.142ZM56.8429 7.10204L57.0386 6.12137L56.2618 5.96638L55.9331 6.68706L56.8429 7.10204ZM60.6606 7.86375L61.6413 8.05941L61.837 7.07874L60.8563 6.88308L60.6606 7.86375ZM60.4611 8.86403L61.3429 9.33569L61.4127 9.20502L61.4417 9.05969L60.4611 8.86403ZM59.6316 10.4147L60.5033 10.9047L60.5085 10.8956L60.5134 10.8864L59.6316 10.4147ZM54.8213 18.9719L54.6257 19.9526L55.3374 20.0946L55.6931 19.4619L54.8213 18.9719ZM50.7961 17.8511L49.6213 8.09979L47.6357 8.339L48.8104 18.0903L50.7961 17.8511ZM49.6238 8.12224L49.4529 6.37199L47.4624 6.56629L47.6332 8.31654L49.6238 8.12224ZM49.4383 6.6648L49.6379 5.66451L47.6766 5.27319L47.477 6.27347L49.4383 6.6648ZM48.4616 6.44952L52.3293 7.22121L52.7207 5.25987L48.8529 4.48818L48.4616 6.44952ZM51.5256 6.27645L51.8431 15.1113L53.8418 15.0395L53.5243 6.20463L51.5256 6.27645ZM52.6468 16.0561L52.9803 16.1226L53.3716 14.1613L53.0381 14.0948L52.6468 16.0561ZM54.0857 15.5569L57.7527 7.51701L55.9331 6.68706L52.2661 14.727L54.0857 15.5569ZM56.6472 8.08271L60.465 8.84442L60.8563 6.88308L57.0386 6.12137L56.6472 8.08271ZM59.68 7.66809L59.4804 8.66837L61.4417 9.05969L61.6413 8.05941L59.68 7.66809ZM59.5793 8.39238L58.7498 9.94306L60.5134 10.8864L61.3429 9.33569L59.5793 8.39238ZM58.7599 9.9247L53.9496 18.4819L55.6931 19.4619L60.5033 10.9047L58.7599 9.9247ZM55.017 17.9913L49.9989 16.9901L49.6076 18.9514L54.6257 19.9526L55.017 17.9913Z" fill="white"/>
<path d="M64.1743 21.9058L64.3359 20.8429L65.4125 19.484L69.6535 11.1893L77.4487 15.1749L77.9734 16.0159L75.6587 18.0783L74.3739 17.2305L71.5434 15.7833L70.9242 16.9942L74.6629 18.9057L73.386 21.4032L71.2972 20.3352L69.7247 19.3403L69.005 20.748L73.1977 22.8917L74.0238 25.7198L72.6355 26.2319L64.1743 21.9058Z" fill="white"/>
<path d="M64.1743 21.9058L63.1857 21.7555L63.0773 22.4681L63.7191 22.7962L64.1743 21.9058ZM64.3359 20.8429L63.5521 20.2219L63.3872 20.43L63.3473 20.6925L64.3359 20.8429ZM65.4125 19.484L66.1963 20.105L66.2578 20.0274L66.3029 19.9392L65.4125 19.484ZM69.6535 11.1893L70.1087 10.2989L69.2184 9.84371L68.7631 10.7341L69.6535 11.1893ZM77.4487 15.1749L78.2972 14.6456L78.1506 14.4106L77.9039 14.2845L77.4487 15.1749ZM77.9734 16.0159L78.6386 16.7626L79.2679 16.2018L78.8218 15.4867L77.9734 16.0159ZM75.6587 18.0783L75.108 18.913L75.7498 19.3365L76.324 18.825L75.6587 18.0783ZM74.3739 17.2305L74.9246 16.3958L74.8784 16.3653L74.8291 16.3401L74.3739 17.2305ZM71.5434 15.7833L71.9986 14.8929L71.1082 14.4377L70.653 15.328L71.5434 15.7833ZM70.9242 16.9942L70.0339 16.5389L69.5786 17.4293L70.469 17.8845L70.9242 16.9942ZM74.6629 18.9057L75.5533 19.3609L76.0085 18.4706L75.1181 18.0153L74.6629 18.9057ZM73.386 21.4032L72.9307 22.2936L73.8211 22.7488L74.2763 21.8584L73.386 21.4032ZM71.2972 20.3352L70.7625 21.1803L70.8012 21.2048L70.8419 21.2256L71.2972 20.3352ZM69.7247 19.3403L70.2594 18.4952L69.3332 17.9093L68.8343 18.8851L69.7247 19.3403ZM69.005 20.748L68.1146 20.2927L67.6594 21.1831L68.5497 21.6384L69.005 20.748ZM73.1977 22.8917L74.1576 22.6113L74.0368 22.1975L73.653 22.0013L73.1977 22.8917ZM74.0238 25.7198L74.3699 26.658L75.2454 26.3351L74.9837 25.4394L74.0238 25.7198ZM72.6355 26.2319L72.1803 27.1223L72.5704 27.3218L72.9816 27.1701L72.6355 26.2319ZM65.1629 22.0561L65.3246 20.9932L63.3473 20.6925L63.1857 21.7555L65.1629 22.0561ZM65.1197 21.4639L66.1963 20.105L64.6287 18.863L63.5521 20.2219L65.1197 21.4639ZM66.3029 19.9392L70.5439 11.6445L68.7631 10.7341L64.5222 19.0288L66.3029 19.9392ZM69.1983 12.0797L76.9935 16.0653L77.9039 14.2845L70.1087 10.2989L69.1983 12.0797ZM76.6003 15.7042L77.1249 16.5452L78.8218 15.4867L78.2972 14.6456L76.6003 15.7042ZM77.3081 15.2693L74.9935 17.3317L76.324 18.825L78.6386 16.7626L77.3081 15.2693ZM76.2095 17.2437L74.9246 16.3958L73.8231 18.0651L75.108 18.913L76.2095 17.2437ZM74.8291 16.3401L71.9986 14.8929L71.0881 16.6736L73.9186 18.1208L74.8291 16.3401ZM70.653 15.328L70.0339 16.5389L71.8146 17.4494L72.4337 16.2385L70.653 15.328ZM70.469 17.8845L74.2077 19.7961L75.1181 18.0153L71.3795 16.1038L70.469 17.8845ZM73.7725 18.4505L72.4956 20.948L74.2763 21.8584L75.5533 19.3609L73.7725 18.4505ZM73.8412 20.5128L71.7524 19.4448L70.8419 21.2256L72.9307 22.2936L73.8412 20.5128ZM71.8318 19.4902L70.2594 18.4952L69.19 20.1854L70.7625 21.1803L71.8318 19.4902ZM68.8343 18.8851L68.1146 20.2927L69.8953 21.2032L70.6151 19.7955L68.8343 18.8851ZM68.5497 21.6384L72.7425 23.7821L73.653 22.0013L69.4602 19.8576L68.5497 21.6384ZM72.2378 23.1721L73.0639 26.0002L74.9837 25.4394L74.1576 22.6113L72.2378 23.1721ZM73.6778 24.7816L72.2894 25.2937L72.9816 27.1701L74.3699 26.658L73.6778 24.7816ZM73.0907 25.3416L64.6295 21.0155L63.7191 22.7962L72.1803 27.1223L73.0907 25.3416Z" fill="black"/>
</svg>
